Coordinates
version=1
nRows=21
nColumns=27
inDegrees=yes

Units are S.I. units (second, meters, Newtons, ...)
If the header above contains a line with 'inDegrees', this indicates whether rotational values are in degrees (yes) or radians (no).

endheader
time	pelvis_rotation	pelvis_tilt	pelvis_list	pelvis_tx	pelvis_ty	pelvis_tz	hip_flexion_r	hip_adduction_r	hip_rotation_r	knee_angle_r	knee_rotation_r	knee_adduction_r	knee_angle_r_beta	ankle_angle_r	subtalar_angle_r	mtp_angle_r	hip_flexion_l	hip_adduction_l	hip_rotation_l	knee_angle_l	knee_rotation_l	knee_adduction_l	knee_angle_l_beta	ankle_angle_l	subtalar_angle_l	mtp_angle_l
      3.25500000	     -4.36544126	    -30.09561757	      4.14992124	      0.06691843	      0.82211663	     -1.17382966	     55.26412844	    -28.40911543	    -15.24824854	     29.58527887	      0.00000000	      0.00000000	      0.51636053	     -5.48375576	      0.00000000	      0.00000000	     46.51956250	    -21.47748344	    -18.30094967	     21.79597023	      0.00000000	      0.00000000	      0.38041144	     -7.23505659	      0.00000000	      0.00000000
      3.26000000	     -4.40797136	    -30.62547283	      4.62136107	      0.06522179	      0.82094832	     -1.17402303	     56.72982899	    -28.75860116	    -14.39472657	     30.43025054	      0.00000000	      0.00000000	      0.53110806	     -5.33781744	      0.00000000	      0.00000000	     47.28530814	    -21.30680129	    -18.61560896	     22.30431931	      0.00000000	      0.00000000	      0.38928381	     -7.16201497	      0.00000000	      0.00000000
      3.26500000	     -3.89029789	    -31.02384698	      4.54654529	      0.06395485	      0.82010526	     -1.17382476	     57.20592039	    -29.00046112	    -14.89254998	     30.85448643	      0.00000000	      0.00000000	      0.53851238	     -5.25685432	      0.00000000	      0.00000000	     48.41374856	    -21.35468316	    -17.83016434	     22.89223329	      0.00000000	      0.00000000	      0.39954484	     -7.08695661	      0.00000000	      0.00000000
      3.27000000	     -4.07503345	    -31.63910802	      4.80345667	      0.06205620	      0.81880047	     -1.17379582	     58.72649490	    -29.09587896	    -14.01116343	     31.65603886	      0.00000000	      0.00000000	      0.55250211	     -5.10146681	      0.00000000	      0.00000000	     49.33549822	    -21.45118681	    -18.15046392	     23.52382125	      0.00000000	      0.00000000	      0.41056813	     -6.97059986	      0.00000000	      0.00000000
      3.27500000	     -3.90442922	    -32.17844590	      4.98333141	      0.06034654	      0.81757801	     -1.17372955	     59.86043854	    -29.31979681	    -13.69824018	     32.34158558	      0.00000000	      0.00000000	      0.56446715	     -4.95618371	      0.00000000	      0.00000000	     50.38521612	    -21.46004994	    -17.96455161	     24.15172759	      0.00000000	      0.00000000	      0.42152717	     -6.84881289	      0.00000000	      0.00000000
      3.28000000	     -3.71621403	    -32.69170125	      4.99982849	      0.05880143	      0.81644802	     -1.17357751	     60.79176442	    -29.45425626	    -13.61682050	     32.91579490	      0.00000000	      0.00000000	      0.57448900	     -4.86594564	      0.00000000	      0.00000000	     51.46484364	    -21.57678427	    -17.64685025	     24.77642915	      0.00000000	      0.00000000	      0.43243027	     -6.74935002	      0.00000000	      0.00000000
      3.28500000	     -2.99295302	    -33.07459559	      4.88135911	      0.05751742	      0.81543271	     -1.17338539	     61.12156770	    -29.81993506	    -14.42609497	     33.35007496	      0.00000000	      0.00000000	      0.58206861	     -4.75892787	      0.00000000	      0.00000000	     52.74527043	    -21.55130526	    -16.55655417	     25.41590106	      0.00000000	      0.00000000	      0.44359116	     -6.63444632	      0.00000000	      0.00000000
      3.29000000	     -2.95921962	    -33.57187631	      4.98718058	      0.05584354	      0.81417340	     -1.17325036	     62.22397213	    -29.92709425	    -14.01842546	     33.99527374	      0.00000000	      0.00000000	      0.59332946	     -4.65852482	      0.00000000	      0.00000000	     53.69776589	    -21.65796826	    -16.48501282	     26.01293212	      0.00000000	      0.00000000	      0.45401131	     -6.60021826	      0.00000000	      0.00000000
      3.29500000	     -3.05869054	    -34.01004978	      5.03066996	      0.05431722	      0.81289509	     -1.17306898	     63.26079266	    -29.91855137	    -13.53402613	     34.60014049	      0.00000000	      0.00000000	      0.60388637	     -4.53938394	      0.00000000	      0.00000000	     54.52760057	    -21.87175675	    -16.57577780	     26.61932993	      0.00000000	      0.00000000	      0.46459495	     -6.45177644	      0.00000000	      0.00000000
      3.30000000	     -2.86940797	    -34.42631876	      5.02697150	      0.05288593	      0.81167284	     -1.17291433	     64.06083623	    -30.05800543	    -13.49552743	     35.15393902	      0.00000000	      0.00000000	      0.61355198	     -4.45294754	      0.00000000	      0.00000000	     55.50607486	    -21.98154125	    -16.25283071	     27.22060768	      0.00000000	      0.00000000	      0.47508923	     -6.35148496	      0.00000000	      0.00000000
      3.30500000	     -2.68537282	    -34.81350435	      5.02799340	      0.05146630	      0.81041850	     -1.17278693	     64.83470695	    -30.20176360	    -13.44838233	     35.70370330	      0.00000000	      0.00000000	      0.62314718	     -4.33800493	      0.00000000	      0.00000000	     56.44993564	    -22.08270948	    -15.93564731	     27.81833322	      0.00000000	      0.00000000	      0.48552151	     -6.27631516	      0.00000000	      0.00000000
      3.31000000	     -2.53662070	    -35.21361378	      5.04990973	      0.05003400	      0.80912274	     -1.17268524	     65.66177211	    -30.33878937	    -13.32212147	     36.26158848	      0.00000000	      0.00000000	      0.63288411	     -4.25419193	      0.00000000	      0.00000000	     57.37980939	    -22.18527843	    -15.66767239	     28.41412391	      0.00000000	      0.00000000	      0.49592002	     -6.16344631	      0.00000000	      0.00000000
      3.31500000	     -2.03985848	    -35.71705002	      4.99615689	      0.04855861	      0.80782785	     -1.17259942	     66.35437576	    -30.63928323	    -13.70396549	     36.79014668	      0.00000000	      0.00000000	      0.64210919	     -4.17258335	      0.00000000	      0.00000000	     58.67750567	    -22.18327731	    -14.88801307	     29.07975888	      0.00000000	      0.00000000	      0.50753754	     -6.05961881	      0.00000000	      0.00000000
      3.32000000	     -2.15617466	    -35.90995993	      5.05528033	      0.04738337	      0.80660352	     -1.17251581	     67.08314993	    -30.65012544	    -13.26236261	     37.30274079	      0.00000000	      0.00000000	      0.65105565	     -4.10134568	      0.00000000	      0.00000000	     59.15547419	    -22.35530358	    -15.03988291	     29.55236093	      0.00000000	      0.00000000	      0.51578600	     -6.00175354	      0.00000000	      0.00000000
      3.32500000	     -1.69318583	    -36.41756374	      5.00500771	      0.04597715	      0.80530244	     -1.17248421	     67.78099138	    -30.94160431	    -13.60912651	     37.80774537	      0.00000000	      0.00000000	      0.65986964	     -4.02944122	      0.00000000	      0.00000000	     60.42175730	    -22.34594826	    -14.30605634	     30.19380827	      0.00000000	      0.00000000	      0.52698137	     -5.89397711	      0.00000000	      0.00000000
      3.33000000	     -1.37942762	    -36.72609144	      4.98378609	      0.04481206	      0.80407737	     -1.17246117	     68.32295294	    -31.17888640	    -13.80116216	     38.26961163	      0.00000000	      0.00000000	      0.66793073	     -3.95259173	      0.00000000	      0.00000000	     61.32690665	    -22.36609752	    -13.83717181	     30.74715333	      0.00000000	      0.00000000	      0.53663906	     -5.82527555	      0.00000000	      0.00000000
      3.33500000	     -1.25722392	    -37.00879085	      4.96800711	      0.04363847	      0.80283280	     -1.17245963	     68.94439669	    -31.30168406	    -13.74095784	     38.72312166	      0.00000000	      0.00000000	      0.67584597	     -3.91550573	      0.00000000	      0.00000000	     62.08783310	    -22.46956633	    -13.61320062	     31.27644406	      0.00000000	      0.00000000	      0.54587693	     -5.74287475	      0.00000000	      0.00000000
      3.34000000	     -1.14513617	    -38.12100447	      3.98251305	      0.04161148	      0.80121153	     -1.17208252	     69.81956452	    -30.90790279	    -14.59596042	     39.07951628	      0.00000000	      0.00000000	      0.68206623	     -3.83852149	      0.00000000	      0.00000000	     64.58582721	    -23.20891579	    -12.28517894	     32.55671080	      0.00000000	      0.00000000	      0.56822180	     -5.40578611	      0.00000000	      0.00000000
      3.34500000	     -1.18217606	    -37.46860744	      5.10713779	      0.04141893	      0.80033766	     -1.17251134	     70.29659208	    -31.52084044	    -13.22184467	     39.67465201	      0.00000000	      0.00000000	      0.69245331	     -3.78735640	      0.00000000	      0.00000000	     63.26810688	    -22.66425604	    -13.59602537	     32.21750076	      0.00000000	      0.00000000	      0.56230146	     -5.62566113	      0.00000000	      0.00000000
      3.35000000	     -0.78517437	    -37.76164150	      4.88871320	      0.04042249	      0.79922331	     -1.17251423	     70.53897180	    -31.73465485	    -13.78676210	     39.97929824	      0.00000000	      0.00000000	      0.69777039	     -3.75980327	      0.00000000	      0.00000000	     64.27373162	    -22.71630092	    -12.85790300	     32.75867727	      0.00000000	      0.00000000	      0.57174678	     -5.55730288	      0.00000000	      0.00000000
      3.35500000	     -0.57126805	    -37.94392534	      4.95034061	      0.03941680	      0.79796989	     -1.17258381	     71.04700644	    -31.96739223	    -13.77016008	     40.43407707	      0.00000000	      0.00000000	      0.70570777	     -3.73070782	      0.00000000	      0.00000000	     64.90109336	    -22.72198001	    -12.64928093	     33.21989956	      0.00000000	      0.00000000	      0.57979662	     -5.50957206	      0.00000000	      0.00000000
